<?xml version="1.0" encoding="utf-8" standalone="no"?>
<!DOCTYPE svg PUBLIC "-//W3C//DTD SVG 1.1//EN"
  "http://www.w3.org/Graphics/SVG/1.1/DTD/svg11.dtd">
<svg xmlns:xlink="http://www.w3.org/1999/xlink" width="473.629687pt" height="855.313875pt" viewBox="0 0 473.629687 855.313875" xmlns="http://www.w3.org/2000/svg" version="1.1">
 <metadata>
  <rdf:RDF xmlns:dc="http://purl.org/dc/elements/1.1/" xmlns:cc="http://creativecommons.org/ns#" xmlns:rdf="http://www.w3.org/1999/02/22-rdf-syntax-ns#">
   <cc:Work>
    <dc:type rdf:resource="http://purl.org/dc/dcmitype/StillImage"/>
    <dc:date>2025-02-09T23:31:51.441401</dc:date>
    <dc:format>image/svg+xml</dc:format>
    <dc:creator>
     <cc:Agent>
      <dc:title>Matplotlib v3.8.4, https://matplotlib.org/</dc:title>
     </cc:Agent>
    </dc:creator>
   </cc:Work>
  </rdf:RDF>
 </metadata>
 <defs>
  <style type="text/css">*{stroke-linejoin: round; stroke-linecap: butt}</style>
 </defs>
 <g id="figure_1">
  <g id="patch_1">
   <path d="M 0 855.313875 
L 473.629687 855.313875 
L 473.629687 0 
L 0 0 
z
" style="fill: #ffffff"/>
  </g>
  <g id="axes_1">
   <g id="patch_2">
    <path d="M 75.829688 382.412625 
L 466.429688 382.412625 
L 466.429688 29.612625 
L 75.829688 29.612625 
z
" style="fill: #ffffff"/>
   </g>
   <g id="matplotlib.axis_1">
    <g id="xtick_1">
     <g id="line2d_1">
      <defs>
       <path id="m4243705f20" d="M 0 0 
L 0 -5 
" style="stroke: #435562; stroke-width: 3"/>
      </defs>
      <g>
       <use xlink:href="#m4243705f20" x="93.584233" y="382.412625" style="fill: #435562; stroke: #435562; stroke-width: 3"/>
      </g>
     </g>
     <g id="line2d_2">
      <defs>
       <path id="mf56407b571" d="M 0 0 
L 0 5 
" style="stroke: #435562; stroke-width: 3"/>
      </defs>
      <g>
       <use xlink:href="#mf56407b571" x="93.584233" y="29.612625" style="fill: #435562; stroke: #435562; stroke-width: 3"/>
      </g>
     </g>
     <g id="text_1">
      <!-- −2 -->
      <g style="fill: #435562" transform="translate(80.316264 399.589813) scale(0.18 -0.18)">
       <defs>
        <path id="DejaVuSans-2212" d="M 678 2272 
L 4684 2272 
L 4684 1741 
L 678 1741 
L 678 2272 
z
" transform="scale(0.015625)"/>
        <path id="DejaVuSans-32" d="M 1228 531 
L 3431 531 
L 3431 0 
L 469 0 
L 469 531 
Q 828 903 1448 1529 
Q 2069 2156 2228 2338 
Q 2531 2678 2651 2914 
Q 2772 3150 2772 3378 
Q 2772 3750 2511 3984 
Q 2250 4219 1831 4219 
Q 1534 4219 1204 4116 
Q 875 4013 500 3803 
L 500 4441 
Q 881 4594 1212 4672 
Q 1544 4750 1819 4750 
Q 2544 4750 2975 4387 
Q 3406 4025 3406 3419 
Q 3406 3131 3298 2873 
Q 3191 2616 2906 2266 
Q 2828 2175 2409 1742 
Q 1991 1309 1228 531 
z
" transform="scale(0.015625)"/>
       </defs>
       <use xlink:href="#DejaVuSans-2212"/>
       <use xlink:href="#DejaVuSans-32" x="83.789062"/>
      </g>
     </g>
    </g>
    <g id="xtick_2">
     <g id="line2d_3">
      <g>
       <use xlink:href="#m4243705f20" x="195.038778" y="382.412625" style="fill: #435562; stroke: #435562; stroke-width: 3"/>
      </g>
     </g>
     <g id="line2d_4">
      <g>
       <use xlink:href="#mf56407b571" x="195.038778" y="29.612625" style="fill: #435562; stroke: #435562; stroke-width: 3"/>
      </g>
     </g>
     <g id="text_2">
      <!-- −1 -->
      <g style="fill: #435562" transform="translate(181.77081 399.589813) scale(0.18 -0.18)">
       <defs>
        <path id="DejaVuSans-31" d="M 794 531 
L 1825 531 
L 1825 4091 
L 703 3866 
L 703 4441 
L 1819 4666 
L 2450 4666 
L 2450 531 
L 3481 531 
L 3481 0 
L 794 0 
L 794 531 
z
" transform="scale(0.015625)"/>
       </defs>
       <use xlink:href="#DejaVuSans-2212"/>
       <use xlink:href="#DejaVuSans-31" x="83.789062"/>
      </g>
     </g>
    </g>
    <g id="xtick_3">
     <g id="line2d_5">
      <g>
       <use xlink:href="#m4243705f20" x="296.493324" y="382.412625" style="fill: #435562; stroke: #435562; stroke-width: 3"/>
      </g>
     </g>
     <g id="line2d_6">
      <g>
       <use xlink:href="#mf56407b571" x="296.493324" y="29.612625" style="fill: #435562; stroke: #435562; stroke-width: 3"/>
      </g>
     </g>
     <g id="text_3">
      <!-- 0 -->
      <g style="fill: #435562" transform="translate(290.767074 399.589813) scale(0.18 -0.18)">
       <defs>
        <path id="DejaVuSans-30" d="M 2034 4250 
Q 1547 4250 1301 3770 
Q 1056 3291 1056 2328 
Q 1056 1369 1301 889 
Q 1547 409 2034 409 
Q 2525 409 2770 889 
Q 3016 1369 3016 2328 
Q 3016 3291 2770 3770 
Q 2525 4250 2034 4250 
z
M 2034 4750 
Q 2819 4750 3233 4129 
Q 3647 3509 3647 2328 
Q 3647 1150 3233 529 
Q 2819 -91 2034 -91 
Q 1250 -91 836 529 
Q 422 1150 422 2328 
Q 422 3509 836 4129 
Q 1250 4750 2034 4750 
z
" transform="scale(0.015625)"/>
       </defs>
       <use xlink:href="#DejaVuSans-30"/>
      </g>
     </g>
    </g>
    <g id="xtick_4">
     <g id="line2d_7">
      <g>
       <use xlink:href="#m4243705f20" x="397.947869" y="382.412625" style="fill: #435562; stroke: #435562; stroke-width: 3"/>
      </g>
     </g>
     <g id="line2d_8">
      <g>
       <use xlink:href="#mf56407b571" x="397.947869" y="29.612625" style="fill: #435562; stroke: #435562; stroke-width: 3"/>
      </g>
     </g>
     <g id="text_4">
      <!-- 1 -->
      <g style="fill: #435562" transform="translate(392.221619 399.589813) scale(0.18 -0.18)">
       <use xlink:href="#DejaVuSans-31"/>
      </g>
     </g>
    </g>
    <g id="text_5">
     <!-- X axis -->
     <g style="fill: #435562" transform="translate(244.073438 421.010438) scale(0.18 -0.18)">
      <defs>
       <path id="DejaVuSans-58" d="M 403 4666 
L 1081 4666 
L 2241 2931 
L 3406 4666 
L 4084 4666 
L 2584 2425 
L 4184 0 
L 3506 0 
L 2194 1984 
L 872 0 
L 191 0 
L 1856 2491 
L 403 4666 
z
" transform="scale(0.015625)"/>
       <path id="DejaVuSans-20" transform="scale(0.015625)"/>
       <path id="DejaVuSans-61" d="M 2194 1759 
Q 1497 1759 1228 1600 
Q 959 1441 959 1056 
Q 959 750 1161 570 
Q 1363 391 1709 391 
Q 2188 391 2477 730 
Q 2766 1069 2766 1631 
L 2766 1759 
L 2194 1759 
z
M 3341 1997 
L 3341 0 
L 2766 0 
L 2766 531 
Q 2569 213 2275 61 
Q 1981 -91 1556 -91 
Q 1019 -91 701 211 
Q 384 513 384 1019 
Q 384 1609 779 1909 
Q 1175 2209 1959 2209 
L 2766 2209 
L 2766 2266 
Q 2766 2663 2505 2880 
Q 2244 3097 1772 3097 
Q 1472 3097 1187 3025 
Q 903 2953 641 2809 
L 641 3341 
Q 956 3463 1253 3523 
Q 1550 3584 1831 3584 
Q 2591 3584 2966 3190 
Q 3341 2797 3341 1997 
z
" transform="scale(0.015625)"/>
       <path id="DejaVuSans-78" d="M 3513 3500 
L 2247 1797 
L 3578 0 
L 2900 0 
L 1881 1375 
L 863 0 
L 184 0 
L 1544 1831 
L 300 3500 
L 978 3500 
L 1906 2253 
L 2834 3500 
L 3513 3500 
z
" transform="scale(0.015625)"/>
       <path id="DejaVuSans-69" d="M 603 3500 
L 1178 3500 
L 1178 0 
L 603 0 
L 603 3500 
z
M 603 4863 
L 1178 4863 
L 1178 4134 
L 603 4134 
L 603 4863 
z
" transform="scale(0.015625)"/>
       <path id="DejaVuSans-73" d="M 2834 3397 
L 2834 2853 
Q 2591 2978 2328 3040 
Q 2066 3103 1784 3103 
Q 1356 3103 1142 2972 
Q 928 2841 928 2578 
Q 928 2378 1081 2264 
Q 1234 2150 1697 2047 
L 1894 2003 
Q 2506 1872 2764 1633 
Q 3022 1394 3022 966 
Q 3022 478 2636 193 
Q 2250 -91 1575 -91 
Q 1294 -91 989 -36 
Q 684 19 347 128 
L 347 722 
Q 666 556 975 473 
Q 1284 391 1588 391 
Q 1994 391 2212 530 
Q 2431 669 2431 922 
Q 2431 1156 2273 1281 
Q 2116 1406 1581 1522 
L 1381 1569 
Q 847 1681 609 1914 
Q 372 2147 372 2553 
Q 372 3047 722 3315 
Q 1072 3584 1716 3584 
Q 2034 3584 2315 3537 
Q 2597 3491 2834 3397 
z
" transform="scale(0.015625)"/>
      </defs>
      <use xlink:href="#DejaVuSans-58"/>
      <use xlink:href="#DejaVuSans-20" x="68.505859"/>
      <use xlink:href="#DejaVuSans-61" x="100.292969"/>
      <use xlink:href="#DejaVuSans-78" x="161.572266"/>
      <use xlink:href="#DejaVuSans-69" x="220.751953"/>
      <use xlink:href="#DejaVuSans-73" x="248.535156"/>
     </g>
    </g>
   </g>
   <g id="matplotlib.axis_2">
    <g id="ytick_1">
     <g id="line2d_9">
      <defs>
       <path id="me567fb84e3" d="M 0 0 
L 5 0 
" style="stroke: #435562; stroke-width: 3"/>
      </defs>
      <g>
       <use xlink:href="#me567fb84e3" x="75.829688" y="337.438462" style="fill: #435562; stroke: #435562; stroke-width: 3"/>
      </g>
     </g>
     <g id="line2d_10">
      <defs>
       <path id="me2f2deec56" d="M 0 0 
L -5 0 
" style="stroke: #435562; stroke-width: 3"/>
      </defs>
      <g>
       <use xlink:href="#me2f2deec56" x="466.429688" y="337.438462" style="fill: #435562; stroke: #435562; stroke-width: 3"/>
      </g>
     </g>
     <g id="text_6">
      <!-- −2.5 -->
      <g style="fill: #435562" transform="translate(28.620625 344.277056) scale(0.18 -0.18)">
       <defs>
        <path id="DejaVuSans-2e" d="M 684 794 
L 1344 794 
L 1344 0 
L 684 0 
L 684 794 
z
" transform="scale(0.015625)"/>
        <path id="DejaVuSans-35" d="M 691 4666 
L 3169 4666 
L 3169 4134 
L 1269 4134 
L 1269 2991 
Q 1406 3038 1543 3061 
Q 1681 3084 1819 3084 
Q 2600 3084 3056 2656 
Q 3513 2228 3513 1497 
Q 3513 744 3044 326 
Q 2575 -91 1722 -91 
Q 1428 -91 1123 -41 
Q 819 9 494 109 
L 494 744 
Q 775 591 1075 516 
Q 1375 441 1709 441 
Q 2250 441 2565 725 
Q 2881 1009 2881 1497 
Q 2881 1984 2565 2268 
Q 2250 2553 1709 2553 
Q 1456 2553 1204 2497 
Q 953 2441 691 2322 
L 691 4666 
z
" transform="scale(0.015625)"/>
       </defs>
       <use xlink:href="#DejaVuSans-2212"/>
       <use xlink:href="#DejaVuSans-32" x="83.789062"/>
       <use xlink:href="#DejaVuSans-2e" x="147.412109"/>
       <use xlink:href="#DejaVuSans-35" x="179.199219"/>
      </g>
     </g>
    </g>
    <g id="ytick_2">
     <g id="line2d_11">
      <g>
       <use xlink:href="#me567fb84e3" x="75.829688" y="289.208797" style="fill: #435562; stroke: #435562; stroke-width: 3"/>
      </g>
     </g>
     <g id="line2d_12">
      <g>
       <use xlink:href="#me2f2deec56" x="466.429688" y="289.208797" style="fill: #435562; stroke: #435562; stroke-width: 3"/>
      </g>
     </g>
     <g id="text_7">
      <!-- 0.0 -->
      <g style="fill: #435562" transform="translate(43.704063 296.047391) scale(0.18 -0.18)">
       <use xlink:href="#DejaVuSans-30"/>
       <use xlink:href="#DejaVuSans-2e" x="63.623047"/>
       <use xlink:href="#DejaVuSans-30" x="95.410156"/>
      </g>
     </g>
    </g>
    <g id="ytick_3">
     <g id="line2d_13">
      <g>
       <use xlink:href="#me567fb84e3" x="75.829688" y="240.979132" style="fill: #435562; stroke: #435562; stroke-width: 3"/>
      </g>
     </g>
     <g id="line2d_14">
      <g>
       <use xlink:href="#me2f2deec56" x="466.429688" y="240.979132" style="fill: #435562; stroke: #435562; stroke-width: 3"/>
      </g>
     </g>
     <g id="text_8">
      <!-- 2.5 -->
      <g style="fill: #435562" transform="translate(43.704063 247.817726) scale(0.18 -0.18)">
       <use xlink:href="#DejaVuSans-32"/>
       <use xlink:href="#DejaVuSans-2e" x="63.623047"/>
       <use xlink:href="#DejaVuSans-35" x="95.410156"/>
      </g>
     </g>
    </g>
    <g id="ytick_4">
     <g id="line2d_15">
      <g>
       <use xlink:href="#me567fb84e3" x="75.829688" y="192.749467" style="fill: #435562; stroke: #435562; stroke-width: 3"/>
      </g>
     </g>
     <g id="line2d_16">
      <g>
       <use xlink:href="#me2f2deec56" x="466.429688" y="192.749467" style="fill: #435562; stroke: #435562; stroke-width: 3"/>
      </g>
     </g>
     <g id="text_9">
      <!-- 5.0 -->
      <g style="fill: #435562" transform="translate(43.704063 199.588061) scale(0.18 -0.18)">
       <use xlink:href="#DejaVuSans-35"/>
       <use xlink:href="#DejaVuSans-2e" x="63.623047"/>
       <use xlink:href="#DejaVuSans-30" x="95.410156"/>
      </g>
     </g>
    </g>
    <g id="ytick_5">
     <g id="line2d_17">
      <g>
       <use xlink:href="#me567fb84e3" x="75.829688" y="144.519802" style="fill: #435562; stroke: #435562; stroke-width: 3"/>
      </g>
     </g>
     <g id="line2d_18">
      <g>
       <use xlink:href="#me2f2deec56" x="466.429688" y="144.519802" style="fill: #435562; stroke: #435562; stroke-width: 3"/>
      </g>
     </g>
     <g id="text_10">
      <!-- 7.5 -->
      <g style="fill: #435562" transform="translate(43.704063 151.358396) scale(0.18 -0.18)">
       <defs>
        <path id="DejaVuSans-37" d="M 525 4666 
L 3525 4666 
L 3525 4397 
L 1831 0 
L 1172 0 
L 2766 4134 
L 525 4134 
L 525 4666 
z
" transform="scale(0.015625)"/>
       </defs>
       <use xlink:href="#DejaVuSans-37"/>
       <use xlink:href="#DejaVuSans-2e" x="63.623047"/>
       <use xlink:href="#DejaVuSans-35" x="95.410156"/>
      </g>
     </g>
    </g>
    <g id="ytick_6">
     <g id="line2d_19">
      <g>
       <use xlink:href="#me567fb84e3" x="75.829688" y="96.290137" style="fill: #435562; stroke: #435562; stroke-width: 3"/>
      </g>
     </g>
     <g id="line2d_20">
      <g>
       <use xlink:href="#me2f2deec56" x="466.429688" y="96.290137" style="fill: #435562; stroke: #435562; stroke-width: 3"/>
      </g>
     </g>
     <g id="text_11">
      <!-- 10.0 -->
      <g style="fill: #435562" transform="translate(32.251563 103.128731) scale(0.18 -0.18)">
       <use xlink:href="#DejaVuSans-31"/>
       <use xlink:href="#DejaVuSans-30" x="63.623047"/>
       <use xlink:href="#DejaVuSans-2e" x="127.246094"/>
       <use xlink:href="#DejaVuSans-30" x="159.033203"/>
      </g>
     </g>
    </g>
    <g id="ytick_7">
     <g id="line2d_21">
      <g>
       <use xlink:href="#me567fb84e3" x="75.829688" y="48.060472" style="fill: #435562; stroke: #435562; stroke-width: 3"/>
      </g>
     </g>
     <g id="line2d_22">
      <g>
       <use xlink:href="#me2f2deec56" x="466.429688" y="48.060472" style="fill: #435562; stroke: #435562; stroke-width: 3"/>
      </g>
     </g>
     <g id="text_12">
      <!-- 12.5 -->
      <g style="fill: #435562" transform="translate(32.251563 54.899066) scale(0.18 -0.18)">
       <use xlink:href="#DejaVuSans-31"/>
       <use xlink:href="#DejaVuSans-32" x="63.623047"/>
       <use xlink:href="#DejaVuSans-2e" x="127.246094"/>
       <use xlink:href="#DejaVuSans-35" x="159.033203"/>
      </g>
     </g>
    </g>
    <g id="text_13">
     <!-- Y axis -->
     <g style="fill: #435562" transform="translate(20.877188 232.400906) rotate(-90) scale(0.18 -0.18)">
      <defs>
       <path id="DejaVuSans-59" d="M -13 4666 
L 666 4666 
L 1959 2747 
L 3244 4666 
L 3922 4666 
L 2272 2222 
L 2272 0 
L 1638 0 
L 1638 2222 
L -13 4666 
z
" transform="scale(0.015625)"/>
      </defs>
      <use xlink:href="#DejaVuSans-59"/>
      <use xlink:href="#DejaVuSans-20" x="61.083984"/>
      <use xlink:href="#DejaVuSans-61" x="92.871094"/>
      <use xlink:href="#DejaVuSans-78" x="154.150391"/>
      <use xlink:href="#DejaVuSans-69" x="213.330078"/>
      <use xlink:href="#DejaVuSans-73" x="241.113281"/>
     </g>
    </g>
   </g>
   <g id="line2d_23">
    <path d="M 93.584233 366.376261 
L 100.830986 355.837447 
L 108.077739 346.240728 
L 115.324493 337.543921 
L 122.571246 329.704843 
L 129.817999 322.68131 
L 137.064752 316.431139 
L 144.311506 310.912147 
L 151.558259 306.082149 
L 158.805012 301.898964 
L 166.051765 298.320407 
L 173.298519 295.304296 
L 180.545272 292.808446 
L 187.792025 290.790674 
L 195.038778 289.208797 
L 202.285532 288.020632 
L 209.532285 287.183995 
L 216.779038 286.656703 
L 224.025791 286.396572 
L 231.272545 286.361419 
L 238.519298 286.509061 
L 245.766051 286.797314 
L 253.012804 287.183995 
L 260.259558 287.62692 
L 267.506311 288.083907 
L 274.753064 288.512771 
L 281.999817 288.87133 
L 289.246571 289.1174 
L 296.493324 289.208797 
L 303.740077 289.103339 
L 310.98683 288.758841 
L 318.233584 288.133121 
L 325.480337 287.183995 
L 332.72709 285.86928 
L 339.973843 284.146792 
L 347.220597 281.974347 
L 354.46735 279.309764 
L 361.714103 276.110858 
L 368.960856 272.335445 
L 376.20761 267.941343 
L 383.454363 262.886368 
L 390.701116 257.128336 
L 397.947869 250.625065 
L 405.194623 243.334371 
L 412.441376 235.21407 
L 419.688129 226.22198 
L 426.934882 216.315916 
L 434.181636 205.453695 
L 441.428389 193.593135 
L 448.675142 180.692051 
" clip-path="url(#p00124404d5)" style="fill: none; stroke: #95d0a9; stroke-width: 4; stroke-linecap: square"/>
   </g>
   <g id="line2d_24">
    <path d="M 93.584233 347.084395 
L 100.830986 336.545581 
L 108.077739 326.948862 
L 115.324493 318.252055 
L 122.571246 310.412977 
L 129.817999 303.389444 
L 137.064752 297.139273 
L 144.311506 291.620281 
L 151.558259 286.790283 
L 158.805012 282.607098 
L 166.051765 279.028541 
L 173.298519 276.01243 
L 180.545272 273.51658 
L 187.792025 271.498808 
L 195.038778 269.916931 
L 202.285532 268.728766 
L 209.532285 267.892129 
L 216.779038 267.364837 
L 224.025791 267.104706 
L 231.272545 267.069553 
L 238.519298 267.217195 
L 245.766051 267.505448 
L 253.012804 267.892129 
L 260.259558 268.335054 
L 267.506311 268.792041 
L 274.753064 269.220905 
L 281.999817 269.579464 
L 289.246571 269.825534 
L 296.493324 269.916931 
L 303.740077 269.811473 
L 310.98683 269.466975 
L 318.233584 268.841255 
L 325.480337 267.892129 
L 332.72709 266.577414 
L 339.973843 264.854926 
L 347.220597 262.682481 
L 354.46735 260.017898 
L 361.714103 256.818992 
L 368.960856 253.043579 
L 376.20761 248.649477 
L 383.454363 243.594502 
L 390.701116 237.83647 
L 397.947869 231.333199 
L 405.194623 224.042505 
L 412.441376 215.922204 
L 419.688129 206.930114 
L 426.934882 197.02405 
L 434.181636 186.161829 
L 441.428389 174.301269 
L 448.675142 161.400185 
" clip-path="url(#p00124404d5)" style="fill: none; stroke: #dac4f7; stroke-width: 4; stroke-linecap: square"/>
   </g>
   <g id="line2d_25">
    <path d="M 93.584233 327.792529 
L 100.830986 317.253715 
L 108.077739 307.656996 
L 115.324493 298.960189 
L 122.571246 291.12111 
L 129.817999 284.097578 
L 137.064752 277.847407 
L 144.311506 272.328414 
L 151.558259 267.498417 
L 158.805012 263.315232 
L 166.051765 259.736675 
L 173.298519 256.720564 
L 180.545272 254.224714 
L 187.792025 252.206942 
L 195.038778 250.625065 
L 202.285532 249.4369 
L 209.532285 248.600263 
L 216.779038 248.072971 
L 224.025791 247.81284 
L 231.272545 247.777687 
L 238.519298 247.925329 
L 245.766051 248.213582 
L 253.012804 248.600263 
L 260.259558 249.043188 
L 267.506311 249.500175 
L 274.753064 249.929039 
L 281.999817 250.287598 
L 289.246571 250.533668 
L 296.493324 250.625065 
L 303.740077 250.519607 
L 310.98683 250.175109 
L 318.233584 249.549389 
L 325.480337 248.600263 
L 332.72709 247.285548 
L 339.973843 245.56306 
L 347.220597 243.390615 
L 354.46735 240.726032 
L 361.714103 237.527126 
L 368.960856 233.751713 
L 376.20761 229.357611 
L 383.454363 224.302636 
L 390.701116 218.544604 
L 397.947869 212.041333 
L 405.194623 204.750639 
L 412.441376 196.630338 
L 419.688129 187.638247 
L 426.934882 177.732184 
L 434.181636 166.869963 
L 441.428389 155.009403 
L 448.675142 142.108319 
" clip-path="url(#p00124404d5)" style="fill: none; stroke: #f4989c; stroke-width: 4; stroke-linecap: square"/>
   </g>
   <g id="line2d_26">
    <path d="M 93.584233 308.500663 
L 100.830986 297.961849 
L 108.077739 288.36513 
L 115.324493 279.668323 
L 122.571246 271.829244 
L 129.817999 264.805712 
L 137.064752 258.555541 
L 144.311506 253.036548 
L 151.558259 248.206551 
L 158.805012 244.023366 
L 166.051765 240.444809 
L 173.298519 237.428698 
L 180.545272 234.932848 
L 187.792025 232.915076 
L 195.038778 231.333199 
L 202.285532 230.145034 
L 209.532285 229.308397 
L 216.779038 228.781105 
L 224.025791 228.520974 
L 231.272545 228.485821 
L 238.519298 228.633463 
L 245.766051 228.921716 
L 253.012804 229.308397 
L 260.259558 229.751322 
L 267.506311 230.208309 
L 274.753064 230.637173 
L 281.999817 230.995732 
L 289.246571 231.241802 
L 296.493324 231.333199 
L 303.740077 231.227741 
L 310.98683 230.883243 
L 318.233584 230.257523 
L 325.480337 229.308397 
L 332.72709 227.993682 
L 339.973843 226.271193 
L 347.220597 224.098749 
L 354.46735 221.434166 
L 361.714103 218.23526 
L 368.960856 214.459847 
L 376.20761 210.065745 
L 383.454363 205.01077 
L 390.701116 199.252738 
L 397.947869 192.749467 
L 405.194623 185.458773 
L 412.441376 177.338472 
L 419.688129 168.346381 
L 426.934882 158.440318 
L 434.181636 147.578097 
L 441.428389 135.717537 
L 448.675142 122.816453 
" clip-path="url(#p00124404d5)" style="fill: none; stroke: #ebd2b4; stroke-width: 4; stroke-linecap: square"/>
   </g>
   <g id="line2d_27">
    <path d="M 93.584233 289.208797 
L 100.830986 278.669983 
L 108.077739 269.073264 
L 115.324493 260.376457 
L 122.571246 252.537378 
L 129.817999 245.513846 
L 137.064752 239.263675 
L 144.311506 233.744682 
L 151.558259 228.914685 
L 158.805012 224.7315 
L 166.051765 221.152943 
L 173.298519 218.136832 
L 180.545272 215.640982 
L 187.792025 213.62321 
L 195.038778 212.041333 
L 202.285532 210.853168 
L 209.532285 210.016531 
L 216.779038 209.489239 
L 224.025791 209.229108 
L 231.272545 209.193955 
L 238.519298 209.341597 
L 245.766051 209.62985 
L 253.012804 210.016531 
L 260.259558 210.459456 
L 267.506311 210.916443 
L 274.753064 211.345307 
L 281.999817 211.703866 
L 289.246571 211.949936 
L 296.493324 212.041333 
L 303.740077 211.935875 
L 310.98683 211.591377 
L 318.233584 210.965657 
L 325.480337 210.016531 
L 332.72709 208.701816 
L 339.973843 206.979327 
L 347.220597 204.806883 
L 354.46735 202.1423 
L 361.714103 198.943393 
L 368.960856 195.167981 
L 376.20761 190.773879 
L 383.454363 185.718904 
L 390.701116 179.960872 
L 397.947869 173.457601 
L 405.194623 166.166907 
L 412.441376 158.046606 
L 419.688129 149.054515 
L 426.934882 139.148452 
L 434.181636 128.286231 
L 441.428389 116.425671 
L 448.675142 103.524587 
" clip-path="url(#p00124404d5)" style="fill: none; stroke: #acecf7; stroke-width: 4; stroke-linecap: square"/>
   </g>
   <g id="line2d_28">
    <path d="M 93.584233 269.916931 
L 100.830986 259.378117 
L 108.077739 249.781398 
L 115.324493 241.084591 
L 122.571246 233.245512 
L 129.817999 226.22198 
L 137.064752 219.971809 
L 144.311506 214.452816 
L 151.558259 209.622819 
L 158.805012 205.439634 
L 166.051765 201.861077 
L 173.298519 198.844966 
L 180.545272 196.349116 
L 187.792025 194.331344 
L 195.038778 192.749467 
L 202.285532 191.561302 
L 209.532285 190.724665 
L 216.779038 190.197373 
L 224.025791 189.937242 
L 231.272545 189.902089 
L 238.519298 190.049731 
L 245.766051 190.337984 
L 253.012804 190.724665 
L 260.259558 191.16759 
L 267.506311 191.624577 
L 274.753064 192.053441 
L 281.999817 192.412 
L 289.246571 192.65807 
L 296.493324 192.749467 
L 303.740077 192.644009 
L 310.98683 192.299511 
L 318.233584 191.673791 
L 325.480337 190.724665 
L 332.72709 189.409949 
L 339.973843 187.687461 
L 347.220597 185.515017 
L 354.46735 182.850434 
L 361.714103 179.651527 
L 368.960856 175.876115 
L 376.20761 171.482013 
L 383.454363 166.427038 
L 390.701116 160.669006 
L 397.947869 154.165735 
L 405.194623 146.875041 
L 412.441376 138.75474 
L 419.688129 129.762649 
L 426.934882 119.856586 
L 434.181636 108.994365 
L 441.428389 97.133805 
L 448.675142 84.232721 
" clip-path="url(#p00124404d5)" style="fill: none; stroke: #59594a; stroke-width: 4; stroke-linecap: square"/>
   </g>
   <g id="line2d_29">
    <path d="M 93.584233 250.625065 
L 100.830986 240.086251 
L 108.077739 230.489532 
L 115.324493 221.792725 
L 122.571246 213.953646 
L 129.817999 206.930114 
L 137.064752 200.679943 
L 144.311506 195.16095 
L 151.558259 190.330953 
L 158.805012 186.147768 
L 166.051765 182.569211 
L 173.298519 179.5531 
L 180.545272 177.05725 
L 187.792025 175.039478 
L 195.038778 173.457601 
L 202.285532 172.269436 
L 209.532285 171.432799 
L 216.779038 170.905507 
L 224.025791 170.645376 
L 231.272545 170.610223 
L 238.519298 170.757865 
L 245.766051 171.046118 
L 253.012804 171.432799 
L 260.259558 171.875724 
L 267.506311 172.332711 
L 274.753064 172.761575 
L 281.999817 173.120134 
L 289.246571 173.366204 
L 296.493324 173.457601 
L 303.740077 173.352143 
L 310.98683 173.007645 
L 318.233584 172.381925 
L 325.480337 171.432799 
L 332.72709 170.118083 
L 339.973843 168.395595 
L 347.220597 166.223151 
L 354.46735 163.558568 
L 361.714103 160.359661 
L 368.960856 156.584249 
L 376.20761 152.190147 
L 383.454363 147.135172 
L 390.701116 141.37714 
L 397.947869 134.873869 
L 405.194623 127.583175 
L 412.441376 119.462874 
L 419.688129 110.470783 
L 426.934882 100.56472 
L 434.181636 89.702499 
L 441.428389 77.841939 
L 448.675142 64.940855 
" clip-path="url(#p00124404d5)" style="fill: none; stroke: #7588a3; stroke-width: 4; stroke-linecap: square"/>
   </g>
   <g id="line2d_30">
    <path d="M 93.584233 231.333199 
L 100.830986 220.794385 
L 108.077739 211.197666 
L 115.324493 202.500859 
L 122.571246 194.66178 
L 129.817999 187.638247 
L 137.064752 181.388077 
L 144.311506 175.869084 
L 151.558259 171.039087 
L 158.805012 166.855902 
L 166.051765 163.277345 
L 173.298519 160.261234 
L 180.545272 157.765384 
L 187.792025 155.747612 
L 195.038778 154.165735 
L 202.285532 152.97757 
L 209.532285 152.140933 
L 216.779038 151.613641 
L 224.025791 151.35351 
L 231.272545 151.318357 
L 238.519298 151.465999 
L 245.766051 151.754252 
L 253.012804 152.140933 
L 260.259558 152.583858 
L 267.506311 153.040845 
L 274.753064 153.469709 
L 281.999817 153.828268 
L 289.246571 154.074338 
L 296.493324 154.165735 
L 303.740077 154.060277 
L 310.98683 153.715779 
L 318.233584 153.090059 
L 325.480337 152.140933 
L 332.72709 150.826217 
L 339.973843 149.103729 
L 347.220597 146.931285 
L 354.46735 144.266702 
L 361.714103 141.067795 
L 368.960856 137.292383 
L 376.20761 132.898281 
L 383.454363 127.843306 
L 390.701116 122.085274 
L 397.947869 115.582003 
L 405.194623 108.291309 
L 412.441376 100.171008 
L 419.688129 91.178917 
L 426.934882 81.272853 
L 434.181636 70.410633 
L 441.428389 58.550073 
L 448.675142 45.648989 
" clip-path="url(#p00124404d5)" style="fill: none; stroke: #b9314f; stroke-width: 4; stroke-linecap: square"/>
   </g>
   <g id="patch_3">
    <path d="M 75.829688 382.412625 
L 75.829688 29.612625 
" style="fill: none; stroke: #435562; stroke-width: 3; stroke-linejoin: miter; stroke-linecap: square"/>
   </g>
   <g id="patch_4">
    <path d="M 466.429688 382.412625 
L 466.429688 29.612625 
" style="fill: none; stroke: #435562; stroke-width: 3; stroke-linejoin: miter; stroke-linecap: square"/>
   </g>
   <g id="patch_5">
    <path d="M 75.829688 382.412625 
L 466.429688 382.412625 
" style="fill: none; stroke: #435562; stroke-width: 3; stroke-linejoin: miter; stroke-linecap: square"/>
   </g>
   <g id="patch_6">
    <path d="M 75.829688 29.612625 
L 466.429688 29.612625 
" style="fill: none; stroke: #435562; stroke-width: 3; stroke-linejoin: miter; stroke-linecap: square"/>
   </g>
   <g id="text_14">
    <!-- Pastel Colours -->
    <g style="fill: #435562" transform="translate(194.878313 23.612625) scale(0.216 -0.216)">
     <defs>
      <path id="DejaVuSans-50" d="M 1259 4147 
L 1259 2394 
L 2053 2394 
Q 2494 2394 2734 2622 
Q 2975 2850 2975 3272 
Q 2975 3691 2734 3919 
Q 2494 4147 2053 4147 
L 1259 4147 
z
M 628 4666 
L 2053 4666 
Q 2838 4666 3239 4311 
Q 3641 3956 3641 3272 
Q 3641 2581 3239 2228 
Q 2838 1875 2053 1875 
L 1259 1875 
L 1259 0 
L 628 0 
L 628 4666 
z
" transform="scale(0.015625)"/>
      <path id="DejaVuSans-74" d="M 1172 4494 
L 1172 3500 
L 2356 3500 
L 2356 3053 
L 1172 3053 
L 1172 1153 
Q 1172 725 1289 603 
Q 1406 481 1766 481 
L 2356 481 
L 2356 0 
L 1766 0 
Q 1100 0 847 248 
Q 594 497 594 1153 
L 594 3053 
L 172 3053 
L 172 3500 
L 594 3500 
L 594 4494 
L 1172 4494 
z
" transform="scale(0.015625)"/>
      <path id="DejaVuSans-65" d="M 3597 1894 
L 3597 1613 
L 953 1613 
Q 991 1019 1311 708 
Q 1631 397 2203 397 
Q 2534 397 2845 478 
Q 3156 559 3463 722 
L 3463 178 
Q 3153 47 2828 -22 
Q 2503 -91 2169 -91 
Q 1331 -91 842 396 
Q 353 884 353 1716 
Q 353 2575 817 3079 
Q 1281 3584 2069 3584 
Q 2775 3584 3186 3129 
Q 3597 2675 3597 1894 
z
M 3022 2063 
Q 3016 2534 2758 2815 
Q 2500 3097 2075 3097 
Q 1594 3097 1305 2825 
Q 1016 2553 972 2059 
L 3022 2063 
z
" transform="scale(0.015625)"/>
      <path id="DejaVuSans-6c" d="M 603 4863 
L 1178 4863 
L 1178 0 
L 603 0 
L 603 4863 
z
" transform="scale(0.015625)"/>
      <path id="DejaVuSans-43" d="M 4122 4306 
L 4122 3641 
Q 3803 3938 3442 4084 
Q 3081 4231 2675 4231 
Q 1875 4231 1450 3742 
Q 1025 3253 1025 2328 
Q 1025 1406 1450 917 
Q 1875 428 2675 428 
Q 3081 428 3442 575 
Q 3803 722 4122 1019 
L 4122 359 
Q 3791 134 3420 21 
Q 3050 -91 2638 -91 
Q 1578 -91 968 557 
Q 359 1206 359 2328 
Q 359 3453 968 4101 
Q 1578 4750 2638 4750 
Q 3056 4750 3426 4639 
Q 3797 4528 4122 4306 
z
" transform="scale(0.015625)"/>
      <path id="DejaVuSans-6f" d="M 1959 3097 
Q 1497 3097 1228 2736 
Q 959 2375 959 1747 
Q 959 1119 1226 758 
Q 1494 397 1959 397 
Q 2419 397 2687 759 
Q 2956 1122 2956 1747 
Q 2956 2369 2687 2733 
Q 2419 3097 1959 3097 
z
M 1959 3584 
Q 2709 3584 3137 3096 
Q 3566 2609 3566 1747 
Q 3566 888 3137 398 
Q 2709 -91 1959 -91 
Q 1206 -91 779 398 
Q 353 888 353 1747 
Q 353 2609 779 3096 
Q 1206 3584 1959 3584 
z
" transform="scale(0.015625)"/>
      <path id="DejaVuSans-75" d="M 544 1381 
L 544 3500 
L 1119 3500 
L 1119 1403 
Q 1119 906 1312 657 
Q 1506 409 1894 409 
Q 2359 409 2629 706 
Q 2900 1003 2900 1516 
L 2900 3500 
L 3475 3500 
L 3475 0 
L 2900 0 
L 2900 538 
Q 2691 219 2414 64 
Q 2138 -91 1772 -91 
Q 1169 -91 856 284 
Q 544 659 544 1381 
z
M 1991 3584 
L 1991 3584 
z
" transform="scale(0.015625)"/>
      <path id="DejaVuSans-72" d="M 2631 2963 
Q 2534 3019 2420 3045 
Q 2306 3072 2169 3072 
Q 1681 3072 1420 2755 
Q 1159 2438 1159 1844 
L 1159 0 
L 581 0 
L 581 3500 
L 1159 3500 
L 1159 2956 
Q 1341 3275 1631 3429 
Q 1922 3584 2338 3584 
Q 2397 3584 2469 3576 
Q 2541 3569 2628 3553 
L 2631 2963 
z
" transform="scale(0.015625)"/>
     </defs>
     <use xlink:href="#DejaVuSans-50"/>
     <use xlink:href="#DejaVuSans-61" x="55.802734"/>
     <use xlink:href="#DejaVuSans-73" x="117.082031"/>
     <use xlink:href="#DejaVuSans-74" x="169.181641"/>
     <use xlink:href="#DejaVuSans-65" x="208.390625"/>
     <use xlink:href="#DejaVuSans-6c" x="269.914062"/>
     <use xlink:href="#DejaVuSans-20" x="297.697266"/>
     <use xlink:href="#DejaVuSans-43" x="329.484375"/>
     <use xlink:href="#DejaVuSans-6f" x="399.308594"/>
     <use xlink:href="#DejaVuSans-6c" x="460.490234"/>
     <use xlink:href="#DejaVuSans-6f" x="488.273438"/>
     <use xlink:href="#DejaVuSans-75" x="549.455078"/>
     <use xlink:href="#DejaVuSans-72" x="612.833984"/>
     <use xlink:href="#DejaVuSans-73" x="653.947266"/>
    </g>
   </g>
  </g>
  <g id="axes_2">
   <g id="patch_7">
    <path d="M 75.829688 805.772625 
L 466.429688 805.772625 
L 466.429688 452.972625 
L 75.829688 452.972625 
z
" style="fill: #ffffff"/>
   </g>
   <g id="matplotlib.axis_3">
    <g id="xtick_5">
     <g id="line2d_31">
      <g>
       <use xlink:href="#m4243705f20" x="93.584233" y="805.772625" style="fill: #435562; stroke: #435562; stroke-width: 3"/>
      </g>
     </g>
     <g id="line2d_32">
      <g>
       <use xlink:href="#mf56407b571" x="93.584233" y="452.972625" style="fill: #435562; stroke: #435562; stroke-width: 3"/>
      </g>
     </g>
     <g id="text_15">
      <!-- −2 -->
      <g style="fill: #435562" transform="translate(80.316264 822.949813) scale(0.18 -0.18)">
       <use xlink:href="#DejaVuSans-2212"/>
       <use xlink:href="#DejaVuSans-32" x="83.789062"/>
      </g>
     </g>
    </g>
    <g id="xtick_6">
     <g id="line2d_33">
      <g>
       <use xlink:href="#m4243705f20" x="195.038778" y="805.772625" style="fill: #435562; stroke: #435562; stroke-width: 3"/>
      </g>
     </g>
     <g id="line2d_34">
      <g>
       <use xlink:href="#mf56407b571" x="195.038778" y="452.972625" style="fill: #435562; stroke: #435562; stroke-width: 3"/>
      </g>
     </g>
     <g id="text_16">
      <!-- −1 -->
      <g style="fill: #435562" transform="translate(181.77081 822.949813) scale(0.18 -0.18)">
       <use xlink:href="#DejaVuSans-2212"/>
       <use xlink:href="#DejaVuSans-31" x="83.789062"/>
      </g>
     </g>
    </g>
    <g id="xtick_7">
     <g id="line2d_35">
      <g>
       <use xlink:href="#m4243705f20" x="296.493324" y="805.772625" style="fill: #435562; stroke: #435562; stroke-width: 3"/>
      </g>
     </g>
     <g id="line2d_36">
      <g>
       <use xlink:href="#mf56407b571" x="296.493324" y="452.972625" style="fill: #435562; stroke: #435562; stroke-width: 3"/>
      </g>
     </g>
     <g id="text_17">
      <!-- 0 -->
      <g style="fill: #435562" transform="translate(290.767074 822.949813) scale(0.18 -0.18)">
       <use xlink:href="#DejaVuSans-30"/>
      </g>
     </g>
    </g>
    <g id="xtick_8">
     <g id="line2d_37">
      <g>
       <use xlink:href="#m4243705f20" x="397.947869" y="805.772625" style="fill: #435562; stroke: #435562; stroke-width: 3"/>
      </g>
     </g>
     <g id="line2d_38">
      <g>
       <use xlink:href="#mf56407b571" x="397.947869" y="452.972625" style="fill: #435562; stroke: #435562; stroke-width: 3"/>
      </g>
     </g>
     <g id="text_18">
      <!-- 1 -->
      <g style="fill: #435562" transform="translate(392.221619 822.949813) scale(0.18 -0.18)">
       <use xlink:href="#DejaVuSans-31"/>
      </g>
     </g>
    </g>
    <g id="text_19">
     <!-- X axis -->
     <g style="fill: #435562" transform="translate(244.073438 844.370438) scale(0.18 -0.18)">
      <use xlink:href="#DejaVuSans-58"/>
      <use xlink:href="#DejaVuSans-20" x="68.505859"/>
      <use xlink:href="#DejaVuSans-61" x="100.292969"/>
      <use xlink:href="#DejaVuSans-78" x="161.572266"/>
      <use xlink:href="#DejaVuSans-69" x="220.751953"/>
      <use xlink:href="#DejaVuSans-73" x="248.535156"/>
     </g>
    </g>
   </g>
   <g id="matplotlib.axis_4">
    <g id="ytick_8">
     <g id="line2d_39">
      <g>
       <use xlink:href="#me567fb84e3" x="75.829688" y="760.798462" style="fill: #435562; stroke: #435562; stroke-width: 3"/>
      </g>
     </g>
     <g id="line2d_40">
      <g>
       <use xlink:href="#me2f2deec56" x="466.429688" y="760.798462" style="fill: #435562; stroke: #435562; stroke-width: 3"/>
      </g>
     </g>
     <g id="text_20">
      <!-- −2.5 -->
      <g style="fill: #435562" transform="translate(28.620625 767.637056) scale(0.18 -0.18)">
       <use xlink:href="#DejaVuSans-2212"/>
       <use xlink:href="#DejaVuSans-32" x="83.789062"/>
       <use xlink:href="#DejaVuSans-2e" x="147.412109"/>
       <use xlink:href="#DejaVuSans-35" x="179.199219"/>
      </g>
     </g>
    </g>
    <g id="ytick_9">
     <g id="line2d_41">
      <g>
       <use xlink:href="#me567fb84e3" x="75.829688" y="712.568797" style="fill: #435562; stroke: #435562; stroke-width: 3"/>
      </g>
     </g>
     <g id="line2d_42">
      <g>
       <use xlink:href="#me2f2deec56" x="466.429688" y="712.568797" style="fill: #435562; stroke: #435562; stroke-width: 3"/>
      </g>
     </g>
     <g id="text_21">
      <!-- 0.0 -->
      <g style="fill: #435562" transform="translate(43.704063 719.407391) scale(0.18 -0.18)">
       <use xlink:href="#DejaVuSans-30"/>
       <use xlink:href="#DejaVuSans-2e" x="63.623047"/>
       <use xlink:href="#DejaVuSans-30" x="95.410156"/>
      </g>
     </g>
    </g>
    <g id="ytick_10">
     <g id="line2d_43">
      <g>
       <use xlink:href="#me567fb84e3" x="75.829688" y="664.339132" style="fill: #435562; stroke: #435562; stroke-width: 3"/>
      </g>
     </g>
     <g id="line2d_44">
      <g>
       <use xlink:href="#me2f2deec56" x="466.429688" y="664.339132" style="fill: #435562; stroke: #435562; stroke-width: 3"/>
      </g>
     </g>
     <g id="text_22">
      <!-- 2.5 -->
      <g style="fill: #435562" transform="translate(43.704063 671.177726) scale(0.18 -0.18)">
       <use xlink:href="#DejaVuSans-32"/>
       <use xlink:href="#DejaVuSans-2e" x="63.623047"/>
       <use xlink:href="#DejaVuSans-35" x="95.410156"/>
      </g>
     </g>
    </g>
    <g id="ytick_11">
     <g id="line2d_45">
      <g>
       <use xlink:href="#me567fb84e3" x="75.829688" y="616.109467" style="fill: #435562; stroke: #435562; stroke-width: 3"/>
      </g>
     </g>
     <g id="line2d_46">
      <g>
       <use xlink:href="#me2f2deec56" x="466.429688" y="616.109467" style="fill: #435562; stroke: #435562; stroke-width: 3"/>
      </g>
     </g>
     <g id="text_23">
      <!-- 5.0 -->
      <g style="fill: #435562" transform="translate(43.704063 622.948061) scale(0.18 -0.18)">
       <use xlink:href="#DejaVuSans-35"/>
       <use xlink:href="#DejaVuSans-2e" x="63.623047"/>
       <use xlink:href="#DejaVuSans-30" x="95.410156"/>
      </g>
     </g>
    </g>
    <g id="ytick_12">
     <g id="line2d_47">
      <g>
       <use xlink:href="#me567fb84e3" x="75.829688" y="567.879802" style="fill: #435562; stroke: #435562; stroke-width: 3"/>
      </g>
     </g>
     <g id="line2d_48">
      <g>
       <use xlink:href="#me2f2deec56" x="466.429688" y="567.879802" style="fill: #435562; stroke: #435562; stroke-width: 3"/>
      </g>
     </g>
     <g id="text_24">
      <!-- 7.5 -->
      <g style="fill: #435562" transform="translate(43.704063 574.718396) scale(0.18 -0.18)">
       <use xlink:href="#DejaVuSans-37"/>
       <use xlink:href="#DejaVuSans-2e" x="63.623047"/>
       <use xlink:href="#DejaVuSans-35" x="95.410156"/>
      </g>
     </g>
    </g>
    <g id="ytick_13">
     <g id="line2d_49">
      <g>
       <use xlink:href="#me567fb84e3" x="75.829688" y="519.650137" style="fill: #435562; stroke: #435562; stroke-width: 3"/>
      </g>
     </g>
     <g id="line2d_50">
      <g>
       <use xlink:href="#me2f2deec56" x="466.429688" y="519.650137" style="fill: #435562; stroke: #435562; stroke-width: 3"/>
      </g>
     </g>
     <g id="text_25">
      <!-- 10.0 -->
      <g style="fill: #435562" transform="translate(32.251563 526.488731) scale(0.18 -0.18)">
       <use xlink:href="#DejaVuSans-31"/>
       <use xlink:href="#DejaVuSans-30" x="63.623047"/>
       <use xlink:href="#DejaVuSans-2e" x="127.246094"/>
       <use xlink:href="#DejaVuSans-30" x="159.033203"/>
      </g>
     </g>
    </g>
    <g id="ytick_14">
     <g id="line2d_51">
      <g>
       <use xlink:href="#me567fb84e3" x="75.829688" y="471.420472" style="fill: #435562; stroke: #435562; stroke-width: 3"/>
      </g>
     </g>
     <g id="line2d_52">
      <g>
       <use xlink:href="#me2f2deec56" x="466.429688" y="471.420472" style="fill: #435562; stroke: #435562; stroke-width: 3"/>
      </g>
     </g>
     <g id="text_26">
      <!-- 12.5 -->
      <g style="fill: #435562" transform="translate(32.251563 478.259066) scale(0.18 -0.18)">
       <use xlink:href="#DejaVuSans-31"/>
       <use xlink:href="#DejaVuSans-32" x="63.623047"/>
       <use xlink:href="#DejaVuSans-2e" x="127.246094"/>
       <use xlink:href="#DejaVuSans-35" x="159.033203"/>
      </g>
     </g>
    </g>
    <g id="text_27">
     <!-- Y axis -->
     <g style="fill: #435562" transform="translate(20.877188 655.760906) rotate(-90) scale(0.18 -0.18)">
      <use xlink:href="#DejaVuSans-59"/>
      <use xlink:href="#DejaVuSans-20" x="61.083984"/>
      <use xlink:href="#DejaVuSans-61" x="92.871094"/>
      <use xlink:href="#DejaVuSans-78" x="154.150391"/>
      <use xlink:href="#DejaVuSans-69" x="213.330078"/>
      <use xlink:href="#DejaVuSans-73" x="241.113281"/>
     </g>
    </g>
   </g>
   <g id="line2d_53">
    <path d="M 93.584233 789.736261 
L 100.830986 779.197447 
L 108.077739 769.600728 
L 115.324493 760.903921 
L 122.571246 753.064843 
L 129.817999 746.04131 
L 137.064752 739.791139 
L 144.311506 734.272147 
L 151.558259 729.442149 
L 158.805012 725.258964 
L 166.051765 721.680407 
L 173.298519 718.664296 
L 180.545272 716.168446 
L 187.792025 714.150674 
L 195.038778 712.568797 
L 202.285532 711.380632 
L 209.532285 710.543995 
L 216.779038 710.016703 
L 224.025791 709.756572 
L 231.272545 709.721419 
L 238.519298 709.869061 
L 245.766051 710.157314 
L 253.012804 710.543995 
L 260.259558 710.98692 
L 267.506311 711.443907 
L 274.753064 711.872771 
L 281.999817 712.23133 
L 289.246571 712.4774 
L 296.493324 712.568797 
L 303.740077 712.463339 
L 310.98683 712.118841 
L 318.233584 711.493121 
L 325.480337 710.543995 
L 332.72709 709.22928 
L 339.973843 707.506792 
L 347.220597 705.334347 
L 354.46735 702.669764 
L 361.714103 699.470858 
L 368.960856 695.695445 
L 376.20761 691.301343 
L 383.454363 686.246368 
L 390.701116 680.488336 
L 397.947869 673.985065 
L 405.194623 666.694371 
L 412.441376 658.57407 
L 419.688129 649.58198 
L 426.934882 639.675916 
L 434.181636 628.813695 
L 441.428389 616.953135 
L 448.675142 604.052051 
" clip-path="url(#p30ea8a04c9)" style="fill: none; stroke: #e14b4b; stroke-width: 4; stroke-linecap: square"/>
   </g>
   <g id="line2d_54">
    <path d="M 93.584233 770.444395 
L 100.830986 759.905581 
L 108.077739 750.308862 
L 115.324493 741.612055 
L 122.571246 733.772977 
L 129.817999 726.749444 
L 137.064752 720.499273 
L 144.311506 714.980281 
L 151.558259 710.150283 
L 158.805012 705.967098 
L 166.051765 702.388541 
L 173.298519 699.37243 
L 180.545272 696.87658 
L 187.792025 694.858808 
L 195.038778 693.276931 
L 202.285532 692.088766 
L 209.532285 691.252129 
L 216.779038 690.724837 
L 224.025791 690.464706 
L 231.272545 690.429553 
L 238.519298 690.577195 
L 245.766051 690.865448 
L 253.012804 691.252129 
L 260.259558 691.695054 
L 267.506311 692.152041 
L 274.753064 692.580905 
L 281.999817 692.939464 
L 289.246571 693.185534 
L 296.493324 693.276931 
L 303.740077 693.171473 
L 310.98683 692.826975 
L 318.233584 692.201255 
L 325.480337 691.252129 
L 332.72709 689.937414 
L 339.973843 688.214926 
L 347.220597 686.042481 
L 354.46735 683.377898 
L 361.714103 680.178992 
L 368.960856 676.403579 
L 376.20761 672.009477 
L 383.454363 666.954502 
L 390.701116 661.19647 
L 397.947869 654.693199 
L 405.194623 647.402505 
L 412.441376 639.282204 
L 419.688129 630.290114 
L 426.934882 620.38405 
L 434.181636 609.521829 
L 441.428389 597.661269 
L 448.675142 584.760185 
" clip-path="url(#p30ea8a04c9)" style="fill: none; stroke: #e1964b; stroke-width: 4; stroke-linecap: square"/>
   </g>
   <g id="line2d_55">
    <path d="M 93.584233 751.152529 
L 100.830986 740.613715 
L 108.077739 731.016996 
L 115.324493 722.320189 
L 122.571246 714.48111 
L 129.817999 707.457578 
L 137.064752 701.207407 
L 144.311506 695.688414 
L 151.558259 690.858417 
L 158.805012 686.675232 
L 166.051765 683.096675 
L 173.298519 680.080564 
L 180.545272 677.584714 
L 187.792025 675.566942 
L 195.038778 673.985065 
L 202.285532 672.7969 
L 209.532285 671.960263 
L 216.779038 671.432971 
L 224.025791 671.17284 
L 231.272545 671.137687 
L 238.519298 671.285329 
L 245.766051 671.573582 
L 253.012804 671.960263 
L 260.259558 672.403188 
L 267.506311 672.860175 
L 274.753064 673.289039 
L 281.999817 673.647598 
L 289.246571 673.893668 
L 296.493324 673.985065 
L 303.740077 673.879607 
L 310.98683 673.535109 
L 318.233584 672.909389 
L 325.480337 671.960263 
L 332.72709 670.645548 
L 339.973843 668.92306 
L 347.220597 666.750615 
L 354.46735 664.086032 
L 361.714103 660.887126 
L 368.960856 657.111713 
L 376.20761 652.717611 
L 383.454363 647.662636 
L 390.701116 641.904604 
L 397.947869 635.401333 
L 405.194623 628.110639 
L 412.441376 619.990338 
L 419.688129 610.998247 
L 426.934882 601.092184 
L 434.181636 590.229963 
L 441.428389 578.369403 
L 448.675142 565.468319 
" clip-path="url(#p30ea8a04c9)" style="fill: none; stroke: #ca4be1; stroke-width: 4; stroke-linecap: square"/>
   </g>
   <g id="line2d_56">
    <path d="M 93.584233 731.860663 
L 100.830986 721.321849 
L 108.077739 711.72513 
L 115.324493 703.028323 
L 122.571246 695.189244 
L 129.817999 688.165712 
L 137.064752 681.915541 
L 144.311506 676.396548 
L 151.558259 671.566551 
L 158.805012 667.383366 
L 166.051765 663.804809 
L 173.298519 660.788698 
L 180.545272 658.292848 
L 187.792025 656.275076 
L 195.038778 654.693199 
L 202.285532 653.505034 
L 209.532285 652.668397 
L 216.779038 652.141105 
L 224.025791 651.880974 
L 231.272545 651.845821 
L 238.519298 651.993463 
L 245.766051 652.281716 
L 253.012804 652.668397 
L 260.259558 653.111322 
L 267.506311 653.568309 
L 274.753064 653.997173 
L 281.999817 654.355732 
L 289.246571 654.601802 
L 296.493324 654.693199 
L 303.740077 654.587741 
L 310.98683 654.243243 
L 318.233584 653.617523 
L 325.480337 652.668397 
L 332.72709 651.353682 
L 339.973843 649.631193 
L 347.220597 647.458749 
L 354.46735 644.794166 
L 361.714103 641.59526 
L 368.960856 637.819847 
L 376.20761 633.425745 
L 383.454363 628.37077 
L 390.701116 622.612738 
L 397.947869 616.109467 
L 405.194623 608.818773 
L 412.441376 600.698472 
L 419.688129 591.706381 
L 426.934882 581.800318 
L 434.181636 570.938097 
L 441.428389 559.077537 
L 448.675142 546.176453 
" clip-path="url(#p30ea8a04c9)" style="fill: none; stroke: #4b62e1; stroke-width: 4; stroke-linecap: square"/>
   </g>
   <g id="line2d_57">
    <path d="M 93.584233 712.568797 
L 100.830986 702.029983 
L 108.077739 692.433264 
L 115.324493 683.736457 
L 122.571246 675.897378 
L 129.817999 668.873846 
L 137.064752 662.623675 
L 144.311506 657.104682 
L 151.558259 652.274685 
L 158.805012 648.0915 
L 166.051765 644.512943 
L 173.298519 641.496832 
L 180.545272 639.000982 
L 187.792025 636.98321 
L 195.038778 635.401333 
L 202.285532 634.213168 
L 209.532285 633.376531 
L 216.779038 632.849239 
L 224.025791 632.589108 
L 231.272545 632.553955 
L 238.519298 632.701597 
L 245.766051 632.98985 
L 253.012804 633.376531 
L 260.259558 633.819456 
L 267.506311 634.276443 
L 274.753064 634.705307 
L 281.999817 635.063866 
L 289.246571 635.309936 
L 296.493324 635.401333 
L 303.740077 635.295875 
L 310.98683 634.951377 
L 318.233584 634.325657 
L 325.480337 633.376531 
L 332.72709 632.061816 
L 339.973843 630.339327 
L 347.220597 628.166883 
L 354.46735 625.5023 
L 361.714103 622.303393 
L 368.960856 618.527981 
L 376.20761 614.133879 
L 383.454363 609.078904 
L 390.701116 603.320872 
L 397.947869 596.817601 
L 405.194623 589.526907 
L 412.441376 581.406606 
L 419.688129 572.414515 
L 426.934882 562.508452 
L 434.181636 551.646231 
L 441.428389 539.785671 
L 448.675142 526.884587 
" clip-path="url(#p30ea8a04c9)" style="fill: none; stroke: #2fb0dc; stroke-width: 4; stroke-linecap: square"/>
   </g>
   <g id="line2d_58">
    <path d="M 93.584233 693.276931 
L 100.830986 682.738117 
L 108.077739 673.141398 
L 115.324493 664.444591 
L 122.571246 656.605512 
L 129.817999 649.58198 
L 137.064752 643.331809 
L 144.311506 637.812816 
L 151.558259 632.982819 
L 158.805012 628.799634 
L 166.051765 625.221077 
L 173.298519 622.204966 
L 180.545272 619.709116 
L 187.792025 617.691344 
L 195.038778 616.109467 
L 202.285532 614.921302 
L 209.532285 614.084665 
L 216.779038 613.557373 
L 224.025791 613.297242 
L 231.272545 613.262089 
L 238.519298 613.409731 
L 245.766051 613.697984 
L 253.012804 614.084665 
L 260.259558 614.52759 
L 267.506311 614.984577 
L 274.753064 615.413441 
L 281.999817 615.772 
L 289.246571 616.01807 
L 296.493324 616.109467 
L 303.740077 616.004009 
L 310.98683 615.659511 
L 318.233584 615.033791 
L 325.480337 614.084665 
L 332.72709 612.769949 
L 339.973843 611.047461 
L 347.220597 608.875017 
L 354.46735 606.210434 
L 361.714103 603.011527 
L 368.960856 599.236115 
L 376.20761 594.842013 
L 383.454363 589.787038 
L 390.701116 584.029006 
L 397.947869 577.525735 
L 405.194623 570.235041 
L 412.441376 562.11474 
L 419.688129 553.122649 
L 426.934882 543.216586 
L 434.181636 532.354365 
L 441.428389 520.493805 
L 448.675142 507.592721 
" clip-path="url(#p30ea8a04c9)" style="fill: none; stroke: #3cda8c; stroke-width: 4; stroke-linecap: square"/>
   </g>
   <g id="line2d_59">
    <path d="M 93.584233 673.985065 
L 100.830986 663.446251 
L 108.077739 653.849532 
L 115.324493 645.152725 
L 122.571246 637.313646 
L 129.817999 630.290114 
L 137.064752 624.039943 
L 144.311506 618.52095 
L 151.558259 613.690953 
L 158.805012 609.507768 
L 166.051765 605.929211 
L 173.298519 602.9131 
L 180.545272 600.41725 
L 187.792025 598.399478 
L 195.038778 596.817601 
L 202.285532 595.629436 
L 209.532285 594.792799 
L 216.779038 594.265507 
L 224.025791 594.005376 
L 231.272545 593.970223 
L 238.519298 594.117865 
L 245.766051 594.406118 
L 253.012804 594.792799 
L 260.259558 595.235724 
L 267.506311 595.692711 
L 274.753064 596.121575 
L 281.999817 596.480134 
L 289.246571 596.726204 
L 296.493324 596.817601 
L 303.740077 596.712143 
L 310.98683 596.367645 
L 318.233584 595.741925 
L 325.480337 594.792799 
L 332.72709 593.478083 
L 339.973843 591.755595 
L 347.220597 589.583151 
L 354.46735 586.918568 
L 361.714103 583.719661 
L 368.960856 579.944249 
L 376.20761 575.550147 
L 383.454363 570.495172 
L 390.701116 564.73714 
L 397.947869 558.233869 
L 405.194623 550.943175 
L 412.441376 542.822874 
L 419.688129 533.830783 
L 426.934882 523.92472 
L 434.181636 513.062499 
L 441.428389 501.201939 
L 448.675142 488.300855 
" clip-path="url(#p30ea8a04c9)" style="fill: none; stroke: #edc81e; stroke-width: 4; stroke-linecap: square"/>
   </g>
   <g id="line2d_60">
    <path d="M 93.584233 654.693199 
L 100.830986 644.154385 
L 108.077739 634.557666 
L 115.324493 625.860859 
L 122.571246 618.02178 
L 129.817999 610.998247 
L 137.064752 604.748077 
L 144.311506 599.229084 
L 151.558259 594.399087 
L 158.805012 590.215902 
L 166.051765 586.637345 
L 173.298519 583.621234 
L 180.545272 581.125384 
L 187.792025 579.107612 
L 195.038778 577.525735 
L 202.285532 576.33757 
L 209.532285 575.500933 
L 216.779038 574.973641 
L 224.025791 574.71351 
L 231.272545 574.678357 
L 238.519298 574.825999 
L 245.766051 575.114252 
L 253.012804 575.500933 
L 260.259558 575.943858 
L 267.506311 576.400845 
L 274.753064 576.829709 
L 281.999817 577.188268 
L 289.246571 577.434338 
L 296.493324 577.525735 
L 303.740077 577.420277 
L 310.98683 577.075779 
L 318.233584 576.450059 
L 325.480337 575.500933 
L 332.72709 574.186217 
L 339.973843 572.463729 
L 347.220597 570.291285 
L 354.46735 567.626702 
L 361.714103 564.427795 
L 368.960856 560.652383 
L 376.20761 556.258281 
L 383.454363 551.203306 
L 390.701116 545.445274 
L 397.947869 538.942003 
L 405.194623 531.651309 
L 412.441376 523.531008 
L 419.688129 514.538917 
L 426.934882 504.632853 
L 434.181636 493.770633 
L 441.428389 481.910073 
L 448.675142 469.008989 
" clip-path="url(#p30ea8a04c9)" style="fill: none; stroke: #a66e58; stroke-width: 4; stroke-linecap: square"/>
   </g>
   <g id="patch_8">
    <path d="M 75.829688 805.772625 
L 75.829688 452.972625 
" style="fill: none; stroke: #435562; stroke-width: 3; stroke-linejoin: miter; stroke-linecap: square"/>
   </g>
   <g id="patch_9">
    <path d="M 466.429688 805.772625 
L 466.429688 452.972625 
" style="fill: none; stroke: #435562; stroke-width: 3; stroke-linejoin: miter; stroke-linecap: square"/>
   </g>
   <g id="patch_10">
    <path d="M 75.829688 805.772625 
L 466.429688 805.772625 
" style="fill: none; stroke: #435562; stroke-width: 3; stroke-linejoin: miter; stroke-linecap: square"/>
   </g>
   <g id="patch_11">
    <path d="M 75.829688 452.972625 
L 466.429688 452.972625 
" style="fill: none; stroke: #435562; stroke-width: 3; stroke-linejoin: miter; stroke-linecap: square"/>
   </g>
   <g id="text_28">
    <!-- Bright Colours -->
    <g style="fill: #435562" transform="translate(194.243813 446.972625) scale(0.216 -0.216)">
     <defs>
      <path id="DejaVuSans-42" d="M 1259 2228 
L 1259 519 
L 2272 519 
Q 2781 519 3026 730 
Q 3272 941 3272 1375 
Q 3272 1813 3026 2020 
Q 2781 2228 2272 2228 
L 1259 2228 
z
M 1259 4147 
L 1259 2741 
L 2194 2741 
Q 2656 2741 2882 2914 
Q 3109 3088 3109 3444 
Q 3109 3797 2882 3972 
Q 2656 4147 2194 4147 
L 1259 4147 
z
M 628 4666 
L 2241 4666 
Q 2963 4666 3353 4366 
Q 3744 4066 3744 3513 
Q 3744 3084 3544 2831 
Q 3344 2578 2956 2516 
Q 3422 2416 3680 2098 
Q 3938 1781 3938 1306 
Q 3938 681 3513 340 
Q 3088 0 2303 0 
L 628 0 
L 628 4666 
z
" transform="scale(0.015625)"/>
      <path id="DejaVuSans-67" d="M 2906 1791 
Q 2906 2416 2648 2759 
Q 2391 3103 1925 3103 
Q 1463 3103 1205 2759 
Q 947 2416 947 1791 
Q 947 1169 1205 825 
Q 1463 481 1925 481 
Q 2391 481 2648 825 
Q 2906 1169 2906 1791 
z
M 3481 434 
Q 3481 -459 3084 -895 
Q 2688 -1331 1869 -1331 
Q 1566 -1331 1297 -1286 
Q 1028 -1241 775 -1147 
L 775 -588 
Q 1028 -725 1275 -790 
Q 1522 -856 1778 -856 
Q 2344 -856 2625 -561 
Q 2906 -266 2906 331 
L 2906 616 
Q 2728 306 2450 153 
Q 2172 0 1784 0 
Q 1141 0 747 490 
Q 353 981 353 1791 
Q 353 2603 747 3093 
Q 1141 3584 1784 3584 
Q 2172 3584 2450 3431 
Q 2728 3278 2906 2969 
L 2906 3500 
L 3481 3500 
L 3481 434 
z
" transform="scale(0.015625)"/>
      <path id="DejaVuSans-68" d="M 3513 2113 
L 3513 0 
L 2938 0 
L 2938 2094 
Q 2938 2591 2744 2837 
Q 2550 3084 2163 3084 
Q 1697 3084 1428 2787 
Q 1159 2491 1159 1978 
L 1159 0 
L 581 0 
L 581 4863 
L 1159 4863 
L 1159 2956 
Q 1366 3272 1645 3428 
Q 1925 3584 2291 3584 
Q 2894 3584 3203 3211 
Q 3513 2838 3513 2113 
z
" transform="scale(0.015625)"/>
     </defs>
     <use xlink:href="#DejaVuSans-42"/>
     <use xlink:href="#DejaVuSans-72" x="68.603516"/>
     <use xlink:href="#DejaVuSans-69" x="109.716797"/>
     <use xlink:href="#DejaVuSans-67" x="137.5"/>
     <use xlink:href="#DejaVuSans-68" x="200.976562"/>
     <use xlink:href="#DejaVuSans-74" x="264.355469"/>
     <use xlink:href="#DejaVuSans-20" x="303.564453"/>
     <use xlink:href="#DejaVuSans-43" x="335.351562"/>
     <use xlink:href="#DejaVuSans-6f" x="405.175781"/>
     <use xlink:href="#DejaVuSans-6c" x="466.357422"/>
     <use xlink:href="#DejaVuSans-6f" x="494.140625"/>
     <use xlink:href="#DejaVuSans-75" x="555.322266"/>
     <use xlink:href="#DejaVuSans-72" x="618.701172"/>
     <use xlink:href="#DejaVuSans-73" x="659.814453"/>
    </g>
   </g>
  </g>
 </g>
 <defs>
  <clipPath id="p00124404d5">
   <rect x="75.829688" y="29.612625" width="390.6" height="352.8"/>
  </clipPath>
  <clipPath id="p30ea8a04c9">
   <rect x="75.829688" y="452.972625" width="390.6" height="352.8"/>
  </clipPath>
 </defs>
</svg>
